<?xml version="1.0" encoding="utf-8"?>
<!-- Generator: Adobe Illustrator 15.0.0, SVG Export Plug-In . SVG Version: 6.00 Build 0)  -->
<!DOCTYPE svg PUBLIC "-//W3C//DTD SVG 1.1//EN" "http://www.w3.org/Graphics/SVG/1.1/DTD/svg11.dtd">
<svg version="1.1" id="Layer_1" xmlns="http://www.w3.org/2000/svg" xmlns:xlink="http://www.w3.org/1999/xlink" x="0px" y="0px"
	 width="261px" height="18px" viewBox="-0.5 13.5 261 18" style="enable-background:new -0.5 13.5 261 18;" xml:space="preserve">
<g>
	<path style="fill:#FFFFFF;" d="M1.7,15.344h1.898v5.535c0,1.265,0,2.293-0.079,2.846c-0.079,0.396-0.079,0.633-0.396,0.713
		c-0.079,0-0.237,0.078-0.396,0.078c-0.079,0-0.079,0-0.079,0.08c0,0.078,0.079,0.078,0.237,0.078c0.396,0,1.186,0,1.265,0
		s0.87,0,1.582,0c0.158,0,0.237,0,0.237-0.078c0,0,0-0.08-0.079-0.08s-0.396,0-0.554-0.078c-0.395-0.08-0.474-0.316-0.474-0.713
		c-0.158-0.631-0.158-1.66-0.158-2.925v-5.535h1.661c1.265,0,1.582,0.316,1.582,0.711v0.158c0,0.158,0,0.237,0.079,0.237
		c0.079,0,0.079-0.079,0.079-0.158c0-0.158,0-1.028,0-1.423c0-0.079,0-0.158-0.079-0.158c-0.079,0-0.158,0-0.396,0.079
		c-0.237,0-0.475,0.079-0.949,0.079H1.938c-0.158,0-0.633,0-1.028-0.079c-0.316,0-0.474-0.158-0.553-0.158
		c0,0-0.079,0.158-0.079,0.237c-0.079,0.079-0.316,1.265-0.316,1.344s0,0.079,0.079,0.079s0.079,0,0.158-0.158
		c0-0.079,0.079-0.158,0.237-0.395C0.593,15.423,0.909,15.344,1.7,15.344"/>
	<path style="fill:#FFFFFF;" d="M9.924,14.948c0.079,0,0.316,0,0.475,0c0.396,0.079,0.554,0.316,0.554,0.712
		c0,0.395,0,0.791,0,2.768v2.293c0,1.265,0,2.293-0.079,2.846c-0.079,0.396-0.079,0.633-0.396,0.713
		c-0.079,0-0.237,0.078-0.396,0.078c-0.079,0-0.079,0-0.079,0.08c0,0.078,0.079,0.078,0.237,0.078s0.475,0,0.791,0
		c0.237,0,0.475,0,0.554,0c0.158,0,0.475,0,1.028,0c0.475,0,1.187,0,2.214,0c0.475,0,0.633,0,0.711-0.316
		c0.079-0.236,0.158-1.186,0.158-1.264c0-0.079,0-0.158-0.079-0.158s-0.079,0.079-0.079,0.158c-0.079,0.553-0.237,0.79-0.553,0.948
		c-0.554,0.158-1.107,0.158-1.423,0.158c-1.265,0-1.502-0.158-1.502-1.027c0-0.237,0-1.818,0-2.214v-1.186
		c0-0.079,0-0.079,0.079-0.079c0.237,0,1.502,0,1.819,0.079c0.474,0.079,0.632,0.237,0.711,0.475
		c0.079,0.158,0.079,0.316,0.079,0.395s0,0.079,0.079,0.079s0.079-0.158,0.079-0.237c0-0.079,0-0.553,0.079-0.87
		c0-0.396,0.079-0.633,0.079-0.711c0-0.079,0-0.079-0.079-0.079s-0.079,0.079-0.158,0.158c-0.079,0.158-0.316,0.158-0.633,0.158
		c-0.316,0-1.897,0-2.056,0c-0.079,0-0.079,0-0.079-0.158v-3.479c0-0.079,0-0.158,0.079-0.158c0.158,0,1.582,0,1.74,0
		c0.711,0.079,0.87,0.237,0.949,0.475c0.079,0.158,0.079,0.395,0.079,0.474s0,0.158,0.079,0.158s0.079-0.079,0.079-0.158
		c0-0.158,0.079-0.711,0.079-0.87c0.079-0.396,0.079-0.554,0.079-0.633s0-0.079-0.079-0.079s-0.079,0.079-0.158,0.079
		s-0.316,0.079-0.554,0.079c-0.316,0-2.847,0-3.005,0h-0.553c-0.316,0-0.633,0-0.949,0c-0.158,0-0.237,0-0.237,0.079
		C9.766,14.869,9.845,14.948,9.924,14.948"/>
	<path style="fill:#FFFFFF;" d="M28.744,20.167l1.107-3.479c0.079-0.158,0.158-0.158,0.158,0l1.265,3.479
		c0,0.079,0,0.079-0.079,0.079h-2.451C28.744,20.247,28.744,20.247,28.744,20.167 M17.041,24.596c0.396,0,1.028,0,1.187,0
		c0.079,0,0.949,0,1.265,0c0.079,0,0.158,0,0.158-0.08c0-0.078,0-0.078-0.079-0.078s-0.158,0-0.237,0s-0.237-0.08-0.237-0.238
		s0.079-0.395,0.158-0.553l2.056-3.558c0.791,1.344,1.502,2.609,2.214,3.875c0.079,0.236,0,0.316-0.079,0.395
		c-0.079,0-0.079,0.08-0.079,0.08c0,0.078,0.079,0.078,0.396,0.078c0.632,0,1.186,0,1.898,0l0,0l0,0h0.158l0,0
		c0.554,0,1.107,0,1.266,0s0.711,0,1.028,0c0.079,0,0.158,0,0.158-0.078c0-0.08,0-0.08-0.158-0.08h-0.158
		c-0.237,0-0.475-0.078-0.475-0.395c0-0.238,0.079-0.555,0.158-0.869l0.791-2.294c0-0.079,0.079-0.079,0.158-0.079h2.768
		c0.079,0,0.079,0,0.158,0.079l1.186,3.163c0.079,0.236,0,0.316-0.079,0.316s-0.079,0-0.079,0.078c0,0.08,0.158,0.08,0.396,0.08
		c0.87,0,1.818,0,2.056,0c0.158,0,0.237,0,0.237-0.08c0-0.078-0.079-0.078-0.158-0.078c-0.158,0-0.316,0-0.553-0.08
		c-0.237-0.078-0.633-0.316-1.107-1.422c-0.791-1.977-2.847-7.354-3.005-7.829c0-0.316-0.079-0.396-0.158-0.396
		c-0.079,0-0.158,0.079-0.316,0.475l-2.926,8.066c-0.237,0.631-0.475,1.105-1.107,1.186h-0.079c-0.079,0-0.237,0-0.316-0.08
		c-0.396-0.078-0.554-0.316-0.791-0.553c-0.237-0.316-2.53-4.112-2.768-4.507L24,15.976c0.395-0.553,0.632-0.949,1.028-1.028
		c0.158-0.079,0.316-0.079,0.396-0.079s0.158,0,0.158-0.079s-0.079-0.079-0.237-0.079c-0.475,0-0.949,0.079-1.107,0.079
		c-0.079,0-0.633-0.079-1.187-0.079c-0.158,0-0.237,0.079-0.237,0.079c0,0.079,0.079,0.079,0.079,0.079c0.079,0,0.237,0,0.396,0.079
		c0.158,0,0.237,0.158,0.237,0.237c0.158,0.158,0.158,0.316,0,0.475c-0.158,0.237-1.502,2.53-1.898,3.084
		c-0.711-1.107-1.186-2.056-1.74-3.084c-0.079-0.158-0.158-0.316-0.158-0.475c0-0.079,0-0.158,0.158-0.237
		c0.079-0.079,0.237-0.079,0.316-0.079s0.079,0,0.079-0.079s0-0.079-0.237-0.079c-0.474,0-1.107,0.079-1.186,0.079
		s-1.186-0.079-1.502-0.079c-0.158,0-0.237,0-0.237,0.079s0,0.079,0.079,0.079s0.316,0,0.554,0.079
		c0.475,0.158,0.711,0.554,1.028,1.028l2.056,3.479l-2.373,3.716c-0.395,0.633-0.711,0.949-1.107,1.027
		c-0.158,0.08-0.396,0.08-0.474,0.08c-0.079,0-0.079,0-0.079,0.078C16.961,24.516,16.961,24.596,17.041,24.596"/>
	<path style="fill:#FFFFFF;" d="M36.493,24.357c0.554,0.238,1.107,0.316,1.74,0.316c0.712,0,1.423-0.158,1.977-0.553
		c0.87-0.633,1.107-1.661,1.107-2.135c0-1.028-0.396-1.818-1.898-3.084l-0.395-0.316c-1.266-0.949-1.582-1.423-1.582-2.214
		c0-0.949,0.711-1.502,1.582-1.502c1.186,0,1.581,0.554,1.581,0.712c0.079,0.158,0.158,0.474,0.158,0.632
		c0,0.079,0,0.158,0.079,0.158s0.079-0.079,0.079-0.316c0.079-0.711,0.158-1.186,0.158-1.186c0-0.079,0-0.079-0.158-0.079
		c-0.079,0-0.237,0-0.474-0.079c-0.316-0.079-0.633-0.158-1.187-0.158c-1.66,0-2.688,0.949-2.688,2.373
		c0,0.87,0.316,1.661,1.661,2.847l0.554,0.475c1.107,0.949,1.502,1.423,1.502,2.372c0,0.87-0.633,1.739-1.819,1.739
		c-0.87,0-1.74-0.395-1.898-1.344c0-0.158,0-0.395,0-0.474s0-0.158-0.079-0.158c-0.158-0.079-0.158,0-0.158,0.158
		c0,0.237-0.079,0.712-0.079,1.343C36.256,24.279,36.256,24.279,36.493,24.357"/>
	<path style="fill:#FFFFFF;" d="M49.62,20.167l1.187-3.479c0.079-0.158,0.158-0.158,0.158,0l1.266,3.479
		c0,0.079,0,0.079-0.079,0.079h-2.452C49.62,20.247,49.62,20.247,49.62,20.167 M46.536,24.596c0.633,0,1.345,0,1.502,0
		c0.158,0,0.712,0,1.028,0c0.079,0,0.158,0,0.158-0.08c0-0.078,0-0.078-0.158-0.078h-0.158c-0.237,0-0.475-0.08-0.475-0.396
		c0-0.236,0.079-0.553,0.158-0.869l0.791-2.293c0-0.079,0.079-0.079,0.158-0.079h2.768c0.079,0,0.079,0,0.079,0.079l1.187,3.162
		c0.079,0.238,0,0.316-0.079,0.316s-0.079,0-0.079,0.08c0,0.078,0.158,0.078,0.396,0.078c0.87,0,1.818,0,2.056,0
		c0.158,0,0.237,0,0.237-0.078c0-0.08-0.079-0.08-0.158-0.08c-0.158,0-0.316,0-0.554-0.078c-0.237-0.08-0.632-0.316-1.107-1.423
		c-0.791-1.977-2.847-7.354-3.005-7.829c-0.079-0.396-0.158-0.475-0.158-0.475c-0.079,0-0.158,0.079-0.316,0.475l-2.926,8.066
		c-0.237,0.631-0.475,1.105-1.107,1.186c-0.079,0-0.316,0-0.395,0c-0.079,0-0.079,0-0.079,0.078
		C46.299,24.516,46.378,24.596,46.536,24.596"/>
	<path style="fill:#FFFFFF;" d="M58.555,19.06c0.316,0.554,1.187,1.502,1.502,1.819c0.316,0.396,1.661,1.582,2.373,2.215
		c-0.475,0.473-1.265,0.947-2.452,0.947c-1.423,0-2.609-1.185-2.609-2.767C57.369,20.247,57.844,19.535,58.555,19.06 M59.504,24.754
		c1.897,0,2.926-1.107,3.242-1.424c1.423,1.107,1.739,1.186,2.688,1.186H66.7l0,0c0.396,0,0.87,0,0.949,0s0.712,0,1.186,0
		c0.158,0,0.237,0,0.237-0.078l-0.079-0.08c-0.079,0-0.237,0-0.474-0.078c-0.158-0.08-0.316-0.238-0.316-0.396
		c0-0.236,0-0.475,0-0.631l0.553-6.01h0.079c0.158,0.316,1.582,3.479,1.74,3.716c0.079,0.158,1.186,2.372,1.502,3.005
		c0.237,0.475,0.316,0.633,0.396,0.633s0.158-0.08,0.396-0.713l3.163-6.799l0,0l0.633,6.721c0,0.236,0,0.475-0.079,0.475
		s-0.079,0.078-0.079,0.078c0,0.08,0.079,0.08,0.396,0.158c0.475,0,1.898,0.08,2.135,0.08c0.158,0,0.237,0,0.237-0.08
		c0-0.078,0-0.078-0.079-0.078c-0.158,0-0.474,0-0.87-0.08c-0.554-0.158-0.633-0.869-0.712-1.344l-0.711-8.145
		c0-0.237-0.079-0.316-0.158-0.316s-0.158,0.079-0.158,0.237l-3.875,8.145l-3.954-8.224c-0.079-0.079-0.158-0.158-0.237-0.158
		s-0.158,0.079-0.158,0.237l-0.87,8.462c-0.079,0.473-0.079,1.027-0.553,1.105c-0.079,0-0.158,0-0.237,0
		c-0.475,0-1.107-0.236-1.502-0.475c-0.396-0.236-0.949-0.553-1.819-1.264c0.554-0.712,1.265-1.977,1.265-3.084
		c0-0.158,0-0.237-0.237-0.237c-0.711-0.079-1.265-0.079-1.582-0.079c-0.079,0-0.237,0-0.237,0.079s0.079,0.079,0.158,0.079
		c0.158,0,0.475,0.079,0.633,0.237s0.237,0.475,0.237,0.633c0,0.791-0.316,1.66-0.633,2.135c-0.395-0.316-1.977-1.819-2.451-2.293
		c-1.265-1.502-1.977-2.373-1.977-3.4c0-1.186,0.87-1.74,1.661-1.74c0.554,0,1.028,0.237,1.265,0.554
		c0.316,0.316,0.396,0.791,0.396,1.107c0,0.158,0,0.237,0.079,0.237s0.079,0,0.158-0.237c0-0.158,0.079-1.107,0.079-1.502
		c0-0.158,0-0.237-0.158-0.316c-0.316-0.158-0.949-0.316-1.582-0.316c-1.661,0.079-2.768,1.423-2.768,2.452
		c0,0.553,0.158,1.107,0.632,1.819c-1.028,0.632-1.977,1.581-1.977,3.163C56.341,23.014,57.211,24.754,59.504,24.754"/>
	<path style="fill:#FFFFFF;" d="M84.176,14.948c0.079,0,0.316,0,0.475,0c0.395,0.079,0.553,0.316,0.553,0.712
		c0,0.395,0,0.791,0,2.768v1.897c0,1.898,0.475,2.847,1.107,3.399c0.949,0.871,2.214,0.949,2.688,0.949
		c0.791,0,1.74-0.158,2.688-0.949c1.028-0.948,1.186-2.45,1.186-3.874v-1.344c0-2.056,0-2.373,0-2.768
		c0-0.475,0.158-0.633,0.475-0.712c0.158,0,0.237,0,0.316,0c0.079,0,0.079,0,0.079-0.079s-0.079-0.079-0.237-0.079
		c-0.396,0-1.028,0-1.107,0s-0.791,0-1.344,0c-0.158,0-0.237,0-0.237,0.079s0.079,0.079,0.079,0.079c0.079,0,0.316,0,0.475,0
		c0.396,0.079,0.554,0.316,0.554,0.712c0,0.395,0,0.791,0,2.768v1.582c0,1.344-0.158,2.451-0.791,3.164
		c-0.474,0.553-1.265,0.947-2.056,0.947c-0.712,0-1.344-0.078-1.977-0.711c-0.554-0.553-0.949-1.344-0.949-3.242v-1.74
		c0-2.056,0-2.373,0-2.768c0-0.475,0.158-0.712,0.474-0.712c0.158,0,0.237,0,0.316,0s0.079,0,0.079-0.079s-0.079-0.079-0.237-0.079
		c-0.396,0-1.186,0-1.265,0s-0.87,0-1.502,0c-0.158,0-0.237,0-0.237,0.079C84.097,14.869,84.097,14.948,84.176,14.948"/>
	<path style="fill:#FFFFFF;" d="M95.483,24.596c0.554,0,1.107,0,1.265,0c0.079,0,0.633,0,1.345,0c0.158,0,0.237,0,0.237-0.08
		c0-0.078-0.079-0.078-0.079-0.078c-0.079,0-0.395,0-0.632-0.08c-0.316-0.078-0.475-0.475-0.475-1.501l-0.158-6.247
		c0.396,0.475,1.898,2.135,3.4,3.716c1.344,1.502,3.242,3.399,3.4,3.558c0.711,0.713,0.87,0.871,0.949,0.871s0.079-0.08,0.079-0.949
		v-7.591c0-0.791,0.079-1.028,0.475-1.186c0.158-0.079,0.237-0.079,0.316-0.079c0.079,0,0.158,0,0.158-0.079
		s-0.079-0.079-0.237-0.079c-0.554,0-0.949,0.079-1.107,0.079s-0.791-0.079-1.344-0.079c-0.158,0-0.237,0-0.237,0.079
		s0,0.079,0.079,0.079s0.396,0,0.633,0.079c0.396,0.079,0.475,0.396,0.475,1.265l0.158,6.563c-0.396-0.396-1.819-1.977-3.084-3.4
		c-1.977-2.135-3.954-4.27-4.112-4.428s-0.316-0.396-0.474-0.396c-0.079,0-0.158,0.158-0.158,0.633v7.433
		c0,1.185-0.079,1.582-0.396,1.66c-0.158,0.08-0.396,0.08-0.554,0.08c-0.079,0-0.079,0-0.079,0.078
		C95.325,24.516,95.404,24.596,95.483,24.596"/>
	<path style="fill:#FFFFFF;" d="M108.215,14.948c0.079,0,0.237,0,0.395,0.079c0.316,0.079,0.396,0.316,0.475,0.712
		c0,0.395,0,0.791,0,2.768V20.8c0,1.265,0,2.294-0.079,2.847c-0.079,0.395-0.079,0.633-0.396,0.711c-0.079,0-0.237,0.08-0.395,0.08
		c-0.079,0-0.079,0-0.079,0.078c0,0.08,0.079,0.08,0.237,0.08c0.395,0,1.186,0,1.265,0s0.87,0,1.582,0c0.158,0,0.237,0,0.237-0.08
		c0,0,0-0.078-0.079-0.078s-0.396,0-0.554-0.08c-0.396-0.078-0.475-0.316-0.475-0.711c-0.079-0.553-0.079-1.582-0.079-2.847v-2.293
		c0-2.056,0-2.373,0-2.768c0-0.475,0.158-0.712,0.475-0.712c0.158,0,0.237,0,0.316,0s0.079,0,0.079-0.079s-0.079-0.079-0.237-0.079
		c-0.396,0-1.186,0-1.265,0s-0.87,0-1.344,0c-0.158,0-0.237,0-0.237,0.079C108.057,14.869,108.136,14.948,108.215,14.948"/>
	<path style="fill:#FFFFFF;" d="M112.248,14.948c0.079,0,0.316,0,0.475,0.079c0.474,0.158,0.632,0.237,0.949,1.028l3.163,7.986
		c0.237,0.633,0.316,0.791,0.475,0.791c0.158,0,0.158-0.236,0.553-1.027c0.316-0.633,0.87-2.056,1.661-3.954
		c0.633-1.582,1.344-3.163,1.423-3.559c0.316-0.87,0.554-1.107,0.712-1.186c0.237-0.158,0.553-0.158,0.632-0.158
		s0.158,0,0.158-0.079s-0.079-0.079-0.237-0.079c-0.395,0-0.949,0-1.028,0c-0.158,0-0.791,0-1.265,0c-0.237,0-0.316,0-0.316,0.079
		s0.079,0.079,0.158,0.079c0.158,0,0.316,0,0.475,0.079c0.158,0.079,0.158,0.158,0.158,0.316c0,0.079-0.079,0.316-0.079,0.474
		c-0.316,0.949-2.056,5.457-2.768,7.196l-2.53-6.642c-0.158-0.475-0.316-0.87-0.316-1.107c0-0.079,0-0.158,0.158-0.237
		c0.079-0.079,0.316-0.079,0.475-0.079c0.079,0,0.158,0,0.158-0.079s-0.079-0.079-0.316-0.079c-0.475,0-1.107,0-1.186,0
		c-0.158,0-0.87,0-1.502,0c-0.237,0-0.316,0-0.316,0.079C112.089,14.869,112.168,14.948,112.248,14.948"/>
	<path style="fill:#FFFFFF;" d="M123.397,14.948c0.079,0,0.316,0,0.475,0c0.396,0.079,0.554,0.316,0.554,0.712
		c0,0.395,0,0.791,0,2.768v2.293c0,1.265,0,2.293-0.079,2.846c-0.079,0.396-0.079,0.633-0.396,0.713
		c-0.079,0-0.237,0.078-0.396,0.078c-0.079,0-0.079,0-0.079,0.08c0,0.078,0.079,0.078,0.237,0.078s0.475,0,0.791,0
		c0.237,0,0.474,0,0.553,0c0.158,0,0.475,0,1.028,0c0.474,0,1.186,0,2.214,0c0.475,0,0.633,0,0.712-0.316
		c0.079-0.236,0.158-1.186,0.158-1.264c0-0.079,0-0.158-0.079-0.158s-0.079,0.079-0.079,0.158c-0.079,0.553-0.237,0.79-0.554,0.948
		s-0.949,0.158-1.265,0.158c-1.265,0-1.502-0.158-1.502-1.027c0-0.237,0-1.818,0-2.214v-1.186c0-0.079,0-0.079,0.079-0.079
		c0.237,0,1.502,0,1.898,0.079c0.474,0.079,0.632,0.237,0.711,0.475c0.079,0.158,0.079,0.316,0.079,0.395s0,0.079,0.079,0.079
		s0.079-0.158,0.079-0.237c0-0.079,0-0.553,0.079-0.87c0-0.396,0.079-0.633,0.079-0.711c0-0.079,0-0.079-0.079-0.079
		s-0.079,0.079-0.158,0.158c-0.079,0.158-0.316,0.158-0.633,0.158c-0.316,0-1.897,0-2.056,0c-0.079,0-0.079,0-0.079-0.158v-3.479
		c0-0.079,0-0.158,0.079-0.158c0.158,0,1.582,0,1.74,0c0.711,0.079,0.87,0.237,0.949,0.475c0.079,0.158,0.079,0.395,0.079,0.474
		s0,0.158,0.079,0.158s0.079-0.079,0.079-0.158c0-0.158,0.079-0.711,0.079-0.87c0-0.396,0.079-0.554,0.079-0.633
		s0-0.079-0.079-0.079s-0.158,0.079-0.158,0.079c-0.079,0-0.316,0.079-0.554,0.079c-0.316,0-2.847,0-3.005,0h-0.553
		c-0.316,0-0.633,0-0.949,0c-0.158,0-0.237,0-0.237,0.079C123.318,14.869,123.318,14.948,123.397,14.948"/>
	<path style="fill:#FFFFFF;" d="M133.361,15.344c0-0.079,0-0.158,0.078-0.158c0.158-0.079,0.475-0.079,0.871-0.079
		c1.422,0,2.213,0.949,2.213,2.609c0,0.949-0.316,1.661-0.791,1.977c-0.316,0.237-0.631,0.237-0.947,0.237
		c-0.555,0-1.188-0.079-1.346-0.237c-0.078,0-0.078-0.079-0.078-0.158V15.344L133.361,15.344z M131.305,14.948
		c0.08,0,0.316,0,0.475,0c0.396,0.079,0.553,0.316,0.553,0.712c0,0.395,0,0.791,0,2.768v2.293c0,1.265,0,2.293-0.078,2.846
		c-0.08,0.396-0.08,0.633-0.395,0.713c-0.08,0-0.238,0.078-0.396,0.078c-0.078,0-0.078,0-0.078,0.08
		c0,0.078,0.078,0.078,0.236,0.078c0.396,0,1.186,0,1.186,0c0.08,0,0.871,0,1.582,0c0.158,0,0.238,0,0.238-0.078
		c0,0,0-0.08-0.08-0.08c-0.078,0-0.395,0-0.553-0.078c-0.396-0.08-0.475-0.316-0.475-0.713c-0.08-0.553-0.08-1.581-0.08-2.846
		v-0.237c0-0.079,0-0.079,0.08-0.079h1.58c0.08,0,0.08,0,0.158,0.079c0.238,0.316,0.871,1.187,1.424,1.898
		c0.713,0.949,1.188,1.582,1.74,1.898c0.316,0.158,0.633,0.236,1.424,0.236h0.949c0.236,0,0.314,0,0.314-0.078l-0.078-0.08
		c-0.08,0-0.236,0-0.475,0c-0.316-0.078-0.869-0.158-1.582-0.949c-0.791-0.79-1.66-1.976-2.688-3.32
		c1.186-1.107,1.582-2.056,1.582-3.005c0-0.87-0.555-1.502-0.871-1.74c-0.711-0.475-1.582-0.554-2.371-0.554
		c-0.396,0-1.424,0-1.504,0c-0.078,0-0.869,0-1.502,0c-0.158,0-0.236,0-0.236,0.079C131.227,14.869,131.227,14.948,131.305,14.948"
		/>
	<path style="fill:#FFFFFF;" d="M141.189,24.357c0.553,0.238,1.107,0.316,1.74,0.316c0.711,0,1.422-0.158,1.977-0.553
		c0.869-0.633,1.107-1.661,1.107-2.135c0-1.028-0.396-1.818-1.898-3.084l-0.395-0.316c-1.266-0.949-1.582-1.423-1.582-2.214
		c0-0.949,0.711-1.502,1.582-1.502c1.186,0,1.58,0.554,1.66,0.712c0.078,0.158,0.158,0.474,0.158,0.632c0,0.079,0,0.158,0.078,0.158
		c0.08,0,0.08-0.079,0.08-0.316c0-0.87,0.078-1.344,0.078-1.344c0-0.079,0-0.079-0.158-0.079c-0.078,0-0.236,0-0.475-0.079
		c-0.316-0.079-0.711-0.158-1.186-0.158c-1.66,0-2.689,0.949-2.689,2.372c0,0.87,0.316,1.661,1.662,2.847l0.553,0.475
		c1.107,0.949,1.502,1.423,1.502,2.372c0,0.87-0.633,1.739-1.818,1.739c-0.869,0-1.74-0.395-1.898-1.343c0-0.158,0-0.396,0-0.475
		s0-0.158-0.078-0.158c-0.08,0-0.08,0.079-0.08,0.237c0,0.237-0.078,0.711-0.078,1.344
		C140.953,24.279,141.031,24.279,141.189,24.357"/>
	<path style="fill:#FFFFFF;" d="M148.543,14.948c0.08,0,0.238,0,0.396,0.079c0.316,0.079,0.395,0.316,0.475,0.712
		c0,0.395,0,0.791,0,2.768V20.8c0,1.265,0,2.294-0.08,2.847c-0.078,0.395-0.158,0.633-0.395,0.711c-0.158,0-0.238,0.08-0.396,0.08
		c-0.078,0-0.078,0-0.078,0.078c0,0.08,0.078,0.08,0.236,0.08c0.396,0,1.186,0,1.266,0c0.078,0,0.869,0,1.582,0
		c0.158,0,0.236,0,0.236-0.08c0,0,0-0.078-0.078-0.078c-0.08,0-0.396,0-0.555-0.08c-0.395-0.078-0.475-0.316-0.475-0.711
		c-0.078-0.553-0.078-1.582-0.078-2.847v-2.293c0-2.056,0-2.373,0-2.768c0-0.475,0.158-0.712,0.475-0.712c0.158,0,0.236,0,0.316,0
		c0.078,0,0.078,0,0.078-0.079s-0.078-0.079-0.236-0.079c-0.396,0-1.188,0-1.266,0c-0.08,0-0.869,0-1.344,0
		c-0.158,0-0.238,0-0.238,0.079C148.465,14.869,148.465,14.948,148.543,14.948"/>
	<path style="fill:#FFFFFF;" d="M153.367,16.134c0-0.079,0.078-0.158,0.236-0.395c0.238-0.316,0.555-0.396,1.346-0.396h1.896v5.535
		c0,1.265,0,2.293-0.078,2.846c-0.08,0.396-0.08,0.633-0.396,0.713c-0.078,0-0.236,0.078-0.395,0.078c-0.08,0-0.08,0.08-0.08,0.08
		c0,0.078,0.08,0.078,0.238,0.078c0.395,0,1.186,0,1.266,0c0.078,0,0.869,0,1.58,0c0.158,0,0.238,0,0.238-0.078
		c0,0,0-0.08-0.08-0.08c-0.078,0-0.395,0-0.553-0.078c-0.395-0.08-0.475-0.316-0.475-0.713c-0.078-0.553-0.078-1.581-0.078-2.846
		v-5.535h1.66c1.266,0,1.582,0.316,1.582,0.711v0.158c0,0.158,0,0.237,0.078,0.237c0.08,0,0.08-0.079,0.08-0.158
		c0-0.158,0-1.028,0-1.423c0-0.079,0-0.158-0.08-0.158c-0.078,0-0.158,0.079-0.395,0.079c-0.238,0-0.475,0.079-0.949,0.079h-4.902
		c-0.158,0-0.633,0-1.029-0.079c-0.316,0-0.475-0.158-0.553-0.158c-0.08,0-0.08,0.158-0.158,0.237c0,0.079-0.316,1.186-0.316,1.344
		c0,0.079,0,0.079,0.078,0.079C153.287,16.292,153.287,16.213,153.367,16.134"/>
	<path style="fill:#FFFFFF;" d="M161.828,14.948c0.078,0,0.395,0.079,0.553,0.237c0.238,0.158,0.555,0.475,0.871,0.949
		c0.475,0.712,2.213,3.559,2.293,3.717c0.158,0.396,0.316,0.632,0.316,1.344v1.107c0,0.237,0,0.792,0,1.264
		c0,0.396-0.158,0.633-0.396,0.713c-0.078,0-0.236,0.078-0.395,0.078c-0.08,0-0.08,0-0.08,0.08c0,0.078,0.08,0.078,0.238,0.078
		c0.395,0,1.186,0,1.266,0c0.078,0,0.869,0,1.58,0c0.158,0,0.238,0,0.238-0.078c0,0,0-0.08-0.08-0.08c-0.078,0-0.395,0-0.553-0.078
		c-0.395-0.08-0.475-0.316-0.553-0.713c0-0.553,0-1.106,0-1.264v-1.107c0-0.396,0-0.791,0.158-1.265
		c0.236-0.554,2.055-3.638,2.451-4.112c0.316-0.316,0.395-0.474,0.711-0.632c0.236-0.158,0.475-0.158,0.633-0.158
		c0.078,0,0.158,0,0.158-0.079s-0.08-0.079-0.158-0.079c-0.238,0-1.186,0-1.266,0c-0.078,0-0.553,0-0.869,0
		c-0.158,0-0.238,0-0.238,0.079s0.08,0.079,0.158,0.158c0.158,0,0.238,0.158,0.238,0.396c0,0.158-0.08,0.395-0.238,0.632
		c-0.236,0.396-1.896,3.242-2.135,3.796c-0.236-0.396-2.213-3.717-2.371-4.112c-0.08-0.158-0.158-0.316-0.158-0.474
		c0-0.079,0.078-0.158,0.158-0.237c0.078-0.079,0.158-0.079,0.158-0.079c0-0.079,0-0.079-0.158-0.079c-0.475,0-1.029,0-1.107,0
		c-0.08,0-1.029,0-1.266,0c-0.158,0-0.158,0-0.158,0.079C161.67,14.869,161.748,14.948,161.828,14.948"/>
	<path style="fill:#FFFFFF;" d="M170.842,20.562l-0.158,0.712c0,0.079,0,0.158,0.08,0.158c0.078,0,0.316-0.158,0.553-0.158
		c0.475-0.079,2.768-0.396,3.084-0.475c0.238,0,0.475-0.079,0.475-0.237c0-0.079-0.158-0.158-0.395-0.158h-3.242
		C170.922,20.483,170.922,20.483,170.842,20.562"/>
	<path style="fill:#FFFFFF;" d="M181.914,24.754c0.869,0,1.818-0.08,2.371-0.316c0.238-0.08,0.238-0.158,0.316-0.396
		c0.158-0.475,0.316-1.581,0.316-1.66s0-0.158-0.078-0.158c-0.08,0-0.08,0.079-0.158,0.158c0,0.237-0.238,0.791-0.475,1.107
		c-0.555,0.553-1.266,0.633-2.293,0.633c-2.768,0-4.666-2.293-4.666-4.745c0-1.344,0.236-2.451,1.186-3.4
		c0.475-0.474,1.266-0.949,3.006-0.949c1.105,0,2.135,0.316,2.609,0.712c0.316,0.316,0.553,0.791,0.553,1.344
		c0,0.158,0,0.237,0.08,0.237c0.078,0,0.078-0.079,0.158-0.237c0-0.158,0-0.949,0-1.344c0-0.475,0.078-0.633,0.078-0.712
		s0-0.158-0.158-0.158c-0.395,0-0.869-0.079-1.344-0.158c-0.633-0.158-1.344-0.158-1.898-0.158c-1.977,0-3.162,0.633-3.953,1.423
		c-1.186,1.187-1.424,2.689-1.424,3.559c0,1.265,0.316,2.688,1.582,3.874C178.672,24.279,180.016,24.754,181.914,24.754"/>
	<path style="fill:#FFFFFF;" d="M191.48,15.027c2.057,0,3.955,1.661,3.955,4.824c0,3.795-2.451,4.428-3.559,4.428
		c-2.373,0-4.191-1.977-4.191-4.982C187.686,16.451,189.268,15.027,191.48,15.027 M191.48,24.754c3.164,0,5.221-2.373,5.221-5.298
		c0-3.005-2.215-4.903-5.141-4.903c-3.559,0-5.141,3.005-5.141,5.061C186.42,21.986,187.924,24.754,191.48,24.754"/>
	<path style="fill:#FFFFFF;" d="M198.203,24.596c0.316,0,0.949,0,1.107,0c0.078,0,0.711,0,1.186,0c0.158,0,0.236,0,0.236-0.08
		l-0.078-0.078c-0.08,0-0.238,0-0.475-0.08c-0.158-0.078-0.316-0.236-0.316-0.395c0-0.238,0-0.475,0-0.633l0.553-6.009h0.08
		c0.158,0.316,1.582,3.479,1.74,3.716c0.078,0.158,1.186,2.371,1.502,3.004c0.236,0.475,0.316,0.633,0.395,0.633
		c0.08,0,0.158-0.078,0.396-0.711l3.162-6.8l0,0l0.633,6.72c0,0.238,0,0.475-0.078,0.475c-0.08,0-0.08,0.08-0.08,0.08
		c0,0.078,0.08,0.078,0.396,0.158c0.473,0,1.896,0.078,2.135,0.078c0.158,0,0.236,0,0.236-0.078c0-0.08,0-0.08-0.078-0.08
		c-0.158,0-0.475,0-0.871-0.078c-0.553-0.158-0.633-0.871-0.711-1.344l-0.869-7.987c0-0.237-0.08-0.316-0.158-0.316
		c-0.08,0-0.158,0.079-0.158,0.237l-3.797,8.145l-3.953-8.145c-0.08-0.158-0.08-0.158-0.158-0.158c-0.08,0-0.158,0.079-0.158,0.237
		l-0.949,8.146c-0.078,0.473-0.078,1.027-0.553,1.105c-0.158,0-0.316,0-0.396,0c-0.078,0-0.158,0-0.158,0.08
		C197.965,24.516,198.123,24.596,198.203,24.596"/>
	<path style="fill:#FFFFFF;" d="M211.883,24.596c0.316,0,0.949,0,1.107,0c0.078,0,0.711,0,1.186,0c0.158,0,0.238,0,0.238-0.08
		l-0.08-0.078c-0.078,0-0.236,0-0.475-0.08c-0.158-0.078-0.316-0.236-0.316-0.395c0-0.238,0-0.475,0-0.633l0.555-6.009h0.078
		c0.158,0.316,1.582,3.479,1.74,3.716c0.078,0.158,1.186,2.371,1.502,3.004c0.238,0.475,0.316,0.633,0.396,0.633
		c0.078,0,0.156-0.078,0.395-0.711l3.162-6.8l0,0l0.633,6.72c0,0.238,0,0.475-0.078,0.475c-0.08,0-0.08,0.08-0.08,0.08
		c0,0.078,0.08,0.078,0.396,0.158c0.475,0,1.896,0.078,2.135,0.078c0.158,0,0.236,0,0.236-0.078c0-0.08,0-0.08-0.078-0.08
		c-0.158,0-0.475,0-0.871-0.078c-0.553-0.158-0.631-0.871-0.711-1.344l-0.869-7.987c0-0.237-0.08-0.316-0.158-0.316
		c-0.08,0-0.158,0.079-0.158,0.237l-3.797,8.145l-3.953-8.145c-0.078-0.158-0.078-0.158-0.158-0.158
		c-0.078,0-0.158,0.079-0.158,0.237l-1.027,8.146c-0.08,0.473-0.08,1.027-0.555,1.105c-0.158,0-0.314,0-0.395,0
		c-0.078,0-0.158,0-0.158,0.08C211.646,24.516,211.725,24.596,211.883,24.596"/>
	<path style="fill:#FFFFFF;" d="M225.959,14.948c0.078,0,0.316,0,0.475,0c0.395,0.079,0.553,0.316,0.553,0.712
		c0,0.395,0,0.791,0,2.768v2.293c0,1.265,0,2.293-0.08,2.846c-0.078,0.396-0.078,0.633-0.395,0.713
		c-0.078,0-0.236,0.078-0.395,0.078c-0.08,0-0.08,0-0.08,0.08c0,0.078,0.08,0.078,0.238,0.078s0.473,0,0.789,0
		c0.238,0,0.475,0,0.555,0c0.158,0,0.475,0,1.027,0c0.475,0,1.186,0,2.215,0c0.475,0,0.633,0,0.711-0.316
		c0.08-0.236,0.158-1.186,0.158-1.264c0-0.079,0-0.158-0.078-0.158c-0.08,0-0.08,0.079-0.08,0.158
		c-0.078,0.553-0.236,0.79-0.553,0.948s-0.949,0.158-1.266,0.158c-1.266,0-1.502-0.158-1.502-1.027c0-0.237,0-1.818,0-2.214v-1.186
		c0-0.079,0-0.079,0.078-0.079c0.238,0,1.502,0,1.898,0.079c0.475,0.079,0.633,0.237,0.711,0.475c0.08,0.158,0.08,0.316,0.08,0.395
		s0,0.079,0.078,0.079c0.08,0,0.08-0.158,0.08-0.237c0-0.079,0-0.553,0.078-0.87c0-0.396,0.08-0.633,0.08-0.711
		c0-0.079,0-0.079-0.08-0.079c-0.078,0-0.078,0.079-0.158,0.158c-0.078,0.158-0.316,0.158-0.633,0.158s-1.896,0-2.055,0
		c-0.08,0-0.08,0-0.08-0.158v-3.479c0-0.079,0-0.158,0.08-0.158c0.158,0,1.58,0,1.818,0c0.711,0.079,0.869,0.237,0.949,0.475
		c0.078,0.158,0.078,0.395,0.078,0.474s0,0.158,0.08,0.158c0.078,0,0.078-0.079,0.078-0.158c0-0.158,0.08-0.711,0.08-0.87
		c0-0.396,0.078-0.554,0.078-0.633s0-0.079-0.078-0.079c-0.08,0-0.08,0.079-0.158,0.079c-0.08,0-0.316,0.079-0.555,0.079
		c-0.316,0-2.846,0-3.004,0h-0.555c-0.316,0-0.631,0-0.947,0c-0.158,0-0.238,0-0.238,0.079
		C225.801,14.869,225.879,14.948,225.959,14.948"/>
	<path style="fill:#FFFFFF;" d="M235.922,15.344c0-0.079,0-0.158,0.078-0.158c0.158-0.079,0.475-0.079,0.871-0.079
		c1.424,0,2.213,0.949,2.213,2.609c0,0.949-0.316,1.661-0.789,1.977c-0.316,0.237-0.633,0.237-0.949,0.237
		c-0.555,0-1.188-0.079-1.346-0.237c-0.078,0-0.078-0.079-0.078-0.158V15.344L235.922,15.344z M233.865,14.948
		c0.08,0,0.316,0,0.475,0c0.396,0.079,0.555,0.316,0.555,0.712c0,0.395,0,0.791,0,2.768v2.293c0,1.265,0,2.293-0.08,2.846
		c-0.078,0.396-0.078,0.633-0.395,0.713c-0.08,0-0.238,0.078-0.396,0.078c-0.078,0-0.078,0-0.078,0.08
		c0,0.078,0.078,0.078,0.236,0.078c0.396,0,1.188,0,1.188,0c0.078,0,0.869,0,1.58,0c0.158,0,0.238,0,0.238-0.078
		c0,0,0-0.08-0.08-0.08c-0.078,0-0.395,0-0.553-0.078c-0.396-0.08-0.475-0.316-0.475-0.713C236,23.014,236,21.986,236,20.721v-0.237
		c0-0.079,0-0.079,0.08-0.079h1.582c0.078,0,0.078,0,0.158,0.079c0.236,0.316,0.869,1.187,1.422,1.898
		c0.713,0.949,1.188,1.582,1.74,1.898c0.316,0.158,0.633,0.236,1.424,0.236h0.949c0.236,0,0.316,0,0.316-0.078l-0.08-0.08
		c-0.078,0-0.236,0-0.475,0c-0.316-0.078-0.869-0.158-1.582-0.949c-0.789-0.79-1.66-1.976-2.688-3.32
		c1.186-1.107,1.582-2.056,1.582-3.005c0-0.87-0.555-1.502-0.871-1.74c-0.711-0.475-1.58-0.554-2.371-0.554
		c-0.396,0-1.424,0-1.504,0c-0.078,0-0.869,0-1.502,0c-0.158,0-0.236,0-0.236,0.079C233.787,14.869,233.787,14.948,233.865,14.948"
		/>
	<path style="fill:#FFFFFF;" d="M249.285,24.754c0.791,0,1.818-0.08,2.373-0.316c0.236-0.08,0.236-0.158,0.316-0.396
		c0.158-0.475,0.316-1.581,0.316-1.66s0-0.158-0.08-0.158c-0.078,0-0.078,0.079-0.158,0.158c0,0.237-0.236,0.791-0.475,1.107
		c-0.553,0.553-1.266,0.633-2.293,0.633c-2.768,0-4.666-2.293-4.666-4.745c0-1.344,0.238-2.451,1.188-3.4
		c0.475-0.474,1.266-0.949,3.004-0.949c1.107,0,2.135,0.316,2.609,0.712c0.316,0.316,0.555,0.791,0.555,1.344
		c0,0.158,0,0.237,0.078,0.237c0.08,0,0.08-0.079,0.08-0.237s0-0.949,0.078-1.344c0-0.475,0.08-0.633,0.08-0.712
		s0-0.158-0.158-0.158c-0.396,0-0.871-0.079-1.346-0.158c-0.711-0.158-1.422-0.158-1.977-0.158c-1.977,0-3.162,0.633-3.953,1.423
		c-1.186,1.187-1.424,2.689-1.424,3.559c0,1.265,0.316,2.688,1.582,3.874C245.965,24.279,247.309,24.754,249.285,24.754"/>
	<path style="fill:#FFFFFF;" d="M259.881,22.777c-0.078,0-0.078,0.079-0.078,0.158c-0.08,0.553-0.238,0.79-0.555,0.948
		c-0.314,0.158-0.869,0.158-1.264,0.158c-1.266,0-1.504-0.158-1.504-1.027c0-0.237,0-1.818,0-2.214v-1.186
		c0-0.079,0-0.079,0.08-0.079c0.236,0,1.502,0,1.818,0.079c0.475,0.079,0.633,0.237,0.713,0.475
		c0.078,0.158,0.078,0.316,0.078,0.395s0,0.079,0.078,0.079c0.08,0,0.08-0.158,0.08-0.237c0-0.079,0-0.553,0.078-0.87
		c0-0.396,0.08-0.633,0.08-0.711c0-0.079,0-0.079-0.08-0.079c-0.078,0-0.078,0.079-0.158,0.158
		c-0.078,0.158-0.314,0.158-0.631,0.158s-1.898,0-2.057,0c-0.08,0-0.08,0-0.08-0.158v-3.479c0-0.079,0-0.158,0.08-0.158
		c0.158,0,1.582,0,1.818,0c0.713,0.079,0.791,0.237,0.949,0.475c0.078,0.158,0.078,0.395,0.078,0.474s0,0.158,0.08,0.158
		c0.078,0,0.078-0.079,0.078-0.158c0-0.158,0.08-0.711,0.08-0.87c0-0.396,0.078-0.554,0.078-0.633s0-0.079-0.078-0.079
		c-0.08,0-0.08,0.079-0.158,0.079c-0.08,0-0.316,0.079-0.553,0.079c-0.316,0-2.848,0-3.006,0h-0.553c-0.316,0-0.633,0-0.949,0
		c-0.158,0-0.238,0-0.238,0.079s0.08,0.079,0.08,0.079c0.078,0,0.316,0,0.475,0.079c0.395,0.079,0.553,0.316,0.553,0.712
		c0,0.395,0,0.791,0,2.768v2.293c0,1.265,0,2.293-0.078,2.846c-0.08,0.396-0.08,0.633-0.396,0.713c-0.078,0-0.236,0.078-0.395,0.078
		c-0.08,0-0.08,0-0.08,0.08c0,0.078,0.08,0.078,0.238,0.078s0.475,0,0.791,0c0.236,0,0.475,0,0.553,0c0.158,0,0.475,0,1.027,0
		c0.475,0,1.188,0,2.215,0c0.475,0,0.633,0,0.711-0.316c0.08-0.236,0.158-1.186,0.158-1.264
		C259.961,22.935,259.961,22.777,259.881,22.777"/>
	<rect x="0.277" y="30.051" style="fill:#EDAA00;" width="259.526" height="0.555"/>
</g>
</svg>
